<svg xmlns="http://www.w3.org/2000/svg" xmlns:xlink="http://www.w3.org/1999/xlink" width="918" height="489" font-size="8.000000pt" font-family="Arial" fill="#000000"><polygon points="427.500000,92.500000 427.500000,36.500000 475.500000,60.500000 475.500000,116.500000 " fill="#ffaa22" stroke="#000000" stroke-width="1"/><polygon points="523.500000,92.500000 523.500000,36.500000 475.500000,60.500000 475.500000,116.500000 " fill="#cc7700" stroke="#000000" stroke-width="1"/><polygon points="427.500000,36.500000 475.500000,12.500000 523.500000,36.500000 475.500000,60.500000 " fill="#ffdd55" stroke="#000000" stroke-width="1"/><polygon points="427.500000,92.500000 427.500000,56.500000 475.500000,80.500000 475.500000,116.500000 " fill="#dd2222" stroke="#000000" stroke-width="1"/><polygon points="523.500000,92.500000 523.500000,56.500000 475.500000,80.500000 475.500000,116.500000 " fill="#aa0000" stroke="#000000" stroke-width="1"/><polygon points="515.500000,112.500000 515.500000,108.500000 539.500000,120.500000 539.500000,124.500000 " fill="#ffaa22" stroke="#000000" stroke-width="1"/><polygon points="563.500000,112.500000 563.500000,108.500000 539.500000,120.500000 539.500000,124.500000 " fill="#cc7700" stroke="#000000" stroke-width="1"/><polygon points="515.500000,108.500000 539.500000,96.500000 563.500000,108.500000 539.500000,120.500000 " fill="#ffdd55" stroke="#000000" stroke-width="1"/><polygon points="387.500000,112.500000 387.500000,112.500000 411.500000,124.500000 411.500000,124.500000 " fill="#999999" stroke="#000000" stroke-width="1"/><polygon points="435.500000,112.500000 435.500000,112.500000 411.500000,124.500000 411.500000,124.500000 " fill="#666666" stroke="#000000" stroke-width="1"/><polygon points="387.500000,112.500000 411.500000,100.500000 435.500000,112.500000 411.500000,124.500000 " fill="#cccccc" stroke="#000000" stroke-width="1"/><polygon points="419.500000,128.500000 419.500000,128.500000 443.500000,140.500000 443.500000,140.500000 " fill="#999999" stroke="#000000" stroke-width="1"/><polygon points="467.500000,128.500000 467.500000,128.500000 443.500000,140.500000 443.500000,140.500000 " fill="#666666" stroke="#000000" stroke-width="1"/><polygon points="419.500000,128.500000 443.500000,116.500000 467.500000,128.500000 443.500000,140.500000 " fill="#cccccc" stroke="#000000" stroke-width="1"/><polygon points="483.500000,128.500000 483.500000,128.500000 507.500000,140.500000 507.500000,140.500000 " fill="#999999" stroke="#000000" stroke-width="1"/><polygon points="531.500000,128.500000 531.500000,128.500000 507.500000,140.500000 507.500000,140.500000 " fill="#666666" stroke="#000000" stroke-width="1"/><polygon points="483.500000,128.500000 507.500000,116.500000 531.500000,128.500000 507.500000,140.500000 " fill="#cccccc" stroke="#000000" stroke-width="1"/><polygon points="355.500000,128.500000 355.500000,128.500000 379.500000,140.500000 379.500000,140.500000 " fill="#999999" stroke="#000000" stroke-width="1"/><polygon points="403.500000,128.500000 403.500000,128.500000 379.500000,140.500000 379.500000,140.500000 " fill="#666666" stroke="#000000" stroke-width="1"/><polygon points="355.500000,128.500000 379.500000,116.500000 403.500000,128.500000 379.500000,140.500000 " fill="#cccccc" stroke="#000000" stroke-width="1"/><polygon points="547.500000,128.500000 547.500000,128.500000 571.500000,140.500000 571.500000,140.500000 " fill="#999999" stroke="#000000" stroke-width="1"/><polygon points="595.500000,128.500000 595.500000,128.500000 571.500000,140.500000 571.500000,140.500000 " fill="#666666" stroke="#000000" stroke-width="1"/><polygon points="547.500000,128.500000 571.500000,116.500000 595.500000,128.500000 571.500000,140.500000 " fill="#cccccc" stroke="#000000" stroke-width="1"/><polygon points="451.500000,144.500000 451.500000,144.500000 475.500000,156.500000 475.500000,156.500000 " fill="#999999" stroke="#000000" stroke-width="1"/><polygon points="499.500000,144.500000 499.500000,144.500000 475.500000,156.500000 475.500000,156.500000 " fill="#666666" stroke="#000000" stroke-width="1"/><polygon points="451.500000,144.500000 475.500000,132.500000 499.500000,144.500000 475.500000,156.500000 " fill="#cccccc" stroke="#000000" stroke-width="1"/><polygon points="387.500000,144.500000 387.500000,144.500000 411.500000,156.500000 411.500000,156.500000 " fill="#999999" stroke="#000000" stroke-width="1"/><polygon points="435.500000,144.500000 435.500000,144.500000 411.500000,156.500000 411.500000,156.500000 " fill="#666666" stroke="#000000" stroke-width="1"/><polygon points="387.500000,144.500000 411.500000,132.500000 435.500000,144.500000 411.500000,156.500000 " fill="#cccccc" stroke="#000000" stroke-width="1"/><polygon points="515.500000,144.500000 515.500000,144.500000 539.500000,156.500000 539.500000,156.500000 " fill="#999999" stroke="#000000" stroke-width="1"/><polygon points="563.500000,144.500000 563.500000,144.500000 539.500000,156.500000 539.500000,156.500000 " fill="#666666" stroke="#000000" stroke-width="1"/><polygon points="515.500000,144.500000 539.500000,132.500000 563.500000,144.500000 539.500000,156.500000 " fill="#cccccc" stroke="#000000" stroke-width="1"/><polygon points="323.500000,144.500000 323.500000,144.500000 347.500000,156.500000 347.500000,156.500000 " fill="#999999" stroke="#000000" stroke-width="1"/><polygon points="371.500000,144.500000 371.500000,144.500000 347.500000,156.500000 347.500000,156.500000 " fill="#666666" stroke="#000000" stroke-width="1"/><polygon points="323.500000,144.500000 347.500000,132.500000 371.500000,144.500000 347.500000,156.500000 " fill="#cccccc" stroke="#000000" stroke-width="1"/><polygon points="579.500000,144.500000 579.500000,76.500000 603.500000,88.500000 603.500000,156.500000 " fill="#ffaa22" stroke="#000000" stroke-width="1"/><polygon points="627.500000,144.500000 627.500000,76.500000 603.500000,88.500000 603.500000,156.500000 " fill="#cc7700" stroke="#000000" stroke-width="1"/><polygon points="579.500000,76.500000 603.500000,64.500000 627.500000,76.500000 603.500000,88.500000 " fill="#ffdd55" stroke="#000000" stroke-width="1"/><polygon points="579.500000,144.500000 579.500000,92.500000 603.500000,104.500000 603.500000,156.500000 " fill="#dd2222" stroke="#000000" stroke-width="1"/><polygon points="627.500000,144.500000 627.500000,92.500000 603.500000,104.500000 603.500000,156.500000 " fill="#aa0000" stroke="#000000" stroke-width="1"/><polygon points="419.500000,160.500000 419.500000,160.500000 443.500000,172.500000 443.500000,172.500000 " fill="#999999" stroke="#000000" stroke-width="1"/><polygon points="467.500000,160.500000 467.500000,160.500000 443.500000,172.500000 443.500000,172.500000 " fill="#666666" stroke="#000000" stroke-width="1"/><polygon points="419.500000,160.500000 443.500000,148.500000 467.500000,160.500000 443.500000,172.500000 " fill="#cccccc" stroke="#000000" stroke-width="1"/><polygon points="483.500000,160.500000 483.500000,160.500000 507.500000,172.500000 507.500000,172.500000 " fill="#999999" stroke="#000000" stroke-width="1"/><polygon points="531.500000,160.500000 531.500000,160.500000 507.500000,172.500000 507.500000,172.500000 " fill="#666666" stroke="#000000" stroke-width="1"/><polygon points="483.500000,160.500000 507.500000,148.500000 531.500000,160.500000 507.500000,172.500000 " fill="#cccccc" stroke="#000000" stroke-width="1"/><polygon points="355.500000,160.500000 355.500000,124.500000 379.500000,136.500000 379.500000,172.500000 " fill="#ffaa22" stroke="#000000" stroke-width="1"/><polygon points="403.500000,160.500000 403.500000,124.500000 379.500000,136.500000 379.500000,172.500000 " fill="#cc7700" stroke="#000000" stroke-width="1"/><polygon points="355.500000,124.500000 379.500000,112.500000 403.500000,124.500000 379.500000,136.500000 " fill="#ffdd55" stroke="#000000" stroke-width="1"/><polygon points="355.500000,160.500000 355.500000,140.500000 379.500000,152.500000 379.500000,172.500000 " fill="#dd2222" stroke="#000000" stroke-width="1"/><polygon points="403.500000,160.500000 403.500000,140.500000 379.500000,152.500000 379.500000,172.500000 " fill="#aa0000" stroke="#000000" stroke-width="1"/><polygon points="547.500000,160.500000 547.500000,128.500000 571.500000,140.500000 571.500000,172.500000 " fill="#ffaa22" stroke="#000000" stroke-width="1"/><polygon points="595.500000,160.500000 595.500000,128.500000 571.500000,140.500000 571.500000,172.500000 " fill="#cc7700" stroke="#000000" stroke-width="1"/><polygon points="547.500000,128.500000 571.500000,116.500000 595.500000,128.500000 571.500000,140.500000 " fill="#ffdd55" stroke="#000000" stroke-width="1"/><polygon points="547.500000,160.500000 547.500000,140.500000 571.500000,152.500000 571.500000,172.500000 " fill="#dd2222" stroke="#000000" stroke-width="1"/><polygon points="595.500000,160.500000 595.500000,140.500000 571.500000,152.500000 571.500000,172.500000 " fill="#aa0000" stroke="#000000" stroke-width="1"/><polygon points="291.500000,160.500000 291.500000,124.500000 315.500000,136.500000 315.500000,172.500000 " fill="#ffaa22" stroke="#000000" stroke-width="1"/><polygon points="339.500000,160.500000 339.500000,124.500000 315.500000,136.500000 315.500000,172.500000 " fill="#cc7700" stroke="#000000" stroke-width="1"/><polygon points="291.500000,124.500000 315.500000,112.500000 339.500000,124.500000 315.500000,136.500000 " fill="#ffdd55" stroke="#000000" stroke-width="1"/><polygon points="291.500000,160.500000 291.500000,136.500000 315.500000,148.500000 315.500000,172.500000 " fill="#dd2222" stroke="#000000" stroke-width="1"/><polygon points="339.500000,160.500000 339.500000,136.500000 315.500000,148.500000 315.500000,172.500000 " fill="#aa0000" stroke="#000000" stroke-width="1"/><polygon points="611.500000,160.500000 611.500000,128.500000 635.500000,140.500000 635.500000,172.500000 " fill="#ffaa22" stroke="#000000" stroke-width="1"/><polygon points="659.500000,160.500000 659.500000,128.500000 635.500000,140.500000 635.500000,172.500000 " fill="#cc7700" stroke="#000000" stroke-width="1"/><polygon points="611.500000,128.500000 635.500000,116.500000 659.500000,128.500000 635.500000,140.500000 " fill="#ffdd55" stroke="#000000" stroke-width="1"/><polygon points="611.500000,160.500000 611.500000,140.500000 635.500000,152.500000 635.500000,172.500000 " fill="#dd2222" stroke="#000000" stroke-width="1"/><polygon points="659.500000,160.500000 659.500000,140.500000 635.500000,152.500000 635.500000,172.500000 " fill="#aa0000" stroke="#000000" stroke-width="1"/><polygon points="451.500000,176.500000 451.500000,176.500000 475.500000,188.500000 475.500000,188.500000 " fill="#999999" stroke="#000000" stroke-width="1"/><polygon points="499.500000,176.500000 499.500000,176.500000 475.500000,188.500000 475.500000,188.500000 " fill="#666666" stroke="#000000" stroke-width="1"/><polygon points="451.500000,176.500000 475.500000,164.500000 499.500000,176.500000 475.500000,188.500000 " fill="#cccccc" stroke="#000000" stroke-width="1"/><polygon points="387.500000,176.500000 387.500000,140.500000 411.500000,152.500000 411.500000,188.500000 " fill="#ffaa22" stroke="#000000" stroke-width="1"/><polygon points="435.500000,176.500000 435.500000,140.500000 411.500000,152.500000 411.500000,188.500000 " fill="#cc7700" stroke="#000000" stroke-width="1"/><polygon points="387.500000,140.500000 411.500000,128.500000 435.500000,140.500000 411.500000,152.500000 " fill="#ffdd55" stroke="#000000" stroke-width="1"/><polygon points="387.500000,176.500000 387.500000,152.500000 411.500000,164.500000 411.500000,188.500000 " fill="#dd2222" stroke="#000000" stroke-width="1"/><polygon points="435.500000,176.500000 435.500000,152.500000 411.500000,164.500000 411.500000,188.500000 " fill="#aa0000" stroke="#000000" stroke-width="1"/><polygon points="515.500000,176.500000 515.500000,140.500000 539.500000,152.500000 539.500000,188.500000 " fill="#ffaa22" stroke="#000000" stroke-width="1"/><polygon points="563.500000,176.500000 563.500000,140.500000 539.500000,152.500000 539.500000,188.500000 " fill="#cc7700" stroke="#000000" stroke-width="1"/><polygon points="515.500000,140.500000 539.500000,128.500000 563.500000,140.500000 539.500000,152.500000 " fill="#ffdd55" stroke="#000000" stroke-width="1"/><polygon points="515.500000,176.500000 515.500000,152.500000 539.500000,164.500000 539.500000,188.500000 " fill="#dd2222" stroke="#000000" stroke-width="1"/><polygon points="563.500000,176.500000 563.500000,152.500000 539.500000,164.500000 539.500000,188.500000 " fill="#aa0000" stroke="#000000" stroke-width="1"/><polygon points="323.500000,176.500000 323.500000,140.500000 347.500000,152.500000 347.500000,188.500000 " fill="#ffaa22" stroke="#000000" stroke-width="1"/><polygon points="371.500000,176.500000 371.500000,140.500000 347.500000,152.500000 347.500000,188.500000 " fill="#cc7700" stroke="#000000" stroke-width="1"/><polygon points="323.500000,140.500000 347.500000,128.500000 371.500000,140.500000 347.500000,152.500000 " fill="#ffdd55" stroke="#000000" stroke-width="1"/><polygon points="323.500000,176.500000 323.500000,152.500000 347.500000,164.500000 347.500000,188.500000 " fill="#dd2222" stroke="#000000" stroke-width="1"/><polygon points="371.500000,176.500000 371.500000,152.500000 347.500000,164.500000 347.500000,188.500000 " fill="#aa0000" stroke="#000000" stroke-width="1"/><polygon points="579.500000,176.500000 579.500000,124.500000 603.500000,136.500000 603.500000,188.500000 " fill="#ffaa22" stroke="#000000" stroke-width="1"/><polygon points="627.500000,176.500000 627.500000,124.500000 603.500000,136.500000 603.500000,188.500000 " fill="#cc7700" stroke="#000000" stroke-width="1"/><polygon points="579.500000,124.500000 603.500000,112.500000 627.500000,124.500000 603.500000,136.500000 " fill="#ffdd55" stroke="#000000" stroke-width="1"/><polygon points="579.500000,176.500000 579.500000,140.500000 603.500000,152.500000 603.500000,188.500000 " fill="#dd2222" stroke="#000000" stroke-width="1"/><polygon points="627.500000,176.500000 627.500000,140.500000 603.500000,152.500000 603.500000,188.500000 " fill="#aa0000" stroke="#000000" stroke-width="1"/><polygon points="259.500000,176.500000 259.500000,144.500000 283.500000,156.500000 283.500000,188.500000 " fill="#ffaa22" stroke="#000000" stroke-width="1"/><polygon points="307.500000,176.500000 307.500000,144.500000 283.500000,156.500000 283.500000,188.500000 " fill="#cc7700" stroke="#000000" stroke-width="1"/><polygon points="259.500000,144.500000 283.500000,132.500000 307.500000,144.500000 283.500000,156.500000 " fill="#ffdd55" stroke="#000000" stroke-width="1"/><polygon points="259.500000,176.500000 259.500000,156.500000 283.500000,168.500000 283.500000,188.500000 " fill="#dd2222" stroke="#000000" stroke-width="1"/><polygon points="307.500000,176.500000 307.500000,156.500000 283.500000,168.500000 283.500000,188.500000 " fill="#aa0000" stroke="#000000" stroke-width="1"/><polygon points="643.500000,176.500000 643.500000,164.500000 667.500000,176.500000 667.500000,188.500000 " fill="#dd2222" stroke="#000000" stroke-width="1"/><polygon points="691.500000,176.500000 691.500000,164.500000 667.500000,176.500000 667.500000,188.500000 " fill="#aa0000" stroke="#000000" stroke-width="1"/><polygon points="643.500000,164.500000 667.500000,152.500000 691.500000,164.500000 667.500000,176.500000 " fill="#ff5555" stroke="#000000" stroke-width="1"/><polygon points="419.500000,192.500000 419.500000,152.500000 443.500000,164.500000 443.500000,204.500000 " fill="#ffaa22" stroke="#000000" stroke-width="1"/><polygon points="467.500000,192.500000 467.500000,152.500000 443.500000,164.500000 443.500000,204.500000 " fill="#cc7700" stroke="#000000" stroke-width="1"/><polygon points="419.500000,152.500000 443.500000,140.500000 467.500000,152.500000 443.500000,164.500000 " fill="#ffdd55" stroke="#000000" stroke-width="1"/><polygon points="419.500000,192.500000 419.500000,168.500000 443.500000,180.500000 443.500000,204.500000 " fill="#dd2222" stroke="#000000" stroke-width="1"/><polygon points="467.500000,192.500000 467.500000,168.500000 443.500000,180.500000 443.500000,204.500000 " fill="#aa0000" stroke="#000000" stroke-width="1"/><polygon points="483.500000,192.500000 483.500000,160.500000 507.500000,172.500000 507.500000,204.500000 " fill="#ffaa22" stroke="#000000" stroke-width="1"/><polygon points="531.500000,192.500000 531.500000,160.500000 507.500000,172.500000 507.500000,204.500000 " fill="#cc7700" stroke="#000000" stroke-width="1"/><polygon points="483.500000,160.500000 507.500000,148.500000 531.500000,160.500000 507.500000,172.500000 " fill="#ffdd55" stroke="#000000" stroke-width="1"/><polygon points="483.500000,192.500000 483.500000,172.500000 507.500000,184.500000 507.500000,204.500000 " fill="#dd2222" stroke="#000000" stroke-width="1"/><polygon points="531.500000,192.500000 531.500000,172.500000 507.500000,184.500000 507.500000,204.500000 " fill="#aa0000" stroke="#000000" stroke-width="1"/><polygon points="355.500000,192.500000 355.500000,128.500000 379.500000,140.500000 379.500000,204.500000 " fill="#ffaa22" stroke="#000000" stroke-width="1"/><polygon points="403.500000,192.500000 403.500000,128.500000 379.500000,140.500000 379.500000,204.500000 " fill="#cc7700" stroke="#000000" stroke-width="1"/><polygon points="355.500000,128.500000 379.500000,116.500000 403.500000,128.500000 379.500000,140.500000 " fill="#ffdd55" stroke="#000000" stroke-width="1"/><polygon points="355.500000,192.500000 355.500000,140.500000 379.500000,152.500000 379.500000,204.500000 " fill="#dd2222" stroke="#000000" stroke-width="1"/><polygon points="403.500000,192.500000 403.500000,140.500000 379.500000,152.500000 379.500000,204.500000 " fill="#aa0000" stroke="#000000" stroke-width="1"/><polygon points="547.500000,192.500000 547.500000,156.500000 571.500000,168.500000 571.500000,204.500000 " fill="#ffaa22" stroke="#000000" stroke-width="1"/><polygon points="595.500000,192.500000 595.500000,156.500000 571.500000,168.500000 571.500000,204.500000 " fill="#cc7700" stroke="#000000" stroke-width="1"/><polygon points="547.500000,156.500000 571.500000,144.500000 595.500000,156.500000 571.500000,168.500000 " fill="#ffdd55" stroke="#000000" stroke-width="1"/><polygon points="547.500000,192.500000 547.500000,168.500000 571.500000,180.500000 571.500000,204.500000 " fill="#dd2222" stroke="#000000" stroke-width="1"/><polygon points="595.500000,192.500000 595.500000,168.500000 571.500000,180.500000 571.500000,204.500000 " fill="#aa0000" stroke="#000000" stroke-width="1"/><polygon points="291.500000,192.500000 291.500000,192.500000 315.500000,204.500000 315.500000,204.500000 " fill="#999999" stroke="#000000" stroke-width="1"/><polygon points="339.500000,192.500000 339.500000,192.500000 315.500000,204.500000 315.500000,204.500000 " fill="#666666" stroke="#000000" stroke-width="1"/><polygon points="291.500000,192.500000 315.500000,180.500000 339.500000,192.500000 315.500000,204.500000 " fill="#cccccc" stroke="#000000" stroke-width="1"/><polygon points="611.500000,192.500000 611.500000,184.500000 635.500000,196.500000 635.500000,204.500000 " fill="#dd2222" stroke="#000000" stroke-width="1"/><polygon points="659.500000,192.500000 659.500000,184.500000 635.500000,196.500000 635.500000,204.500000 " fill="#aa0000" stroke="#000000" stroke-width="1"/><polygon points="611.500000,184.500000 635.500000,172.500000 659.500000,184.500000 635.500000,196.500000 " fill="#ff5555" stroke="#000000" stroke-width="1"/><polygon points="227.500000,192.500000 227.500000,184.500000 251.500000,196.500000 251.500000,204.500000 " fill="#ffaa22" stroke="#000000" stroke-width="1"/><polygon points="275.500000,192.500000 275.500000,184.500000 251.500000,196.500000 251.500000,204.500000 " fill="#cc7700" stroke="#000000" stroke-width="1"/><polygon points="227.500000,184.500000 251.500000,172.500000 275.500000,184.500000 251.500000,196.500000 " fill="#ffdd55" stroke="#000000" stroke-width="1"/><polygon points="227.500000,192.500000 227.500000,188.500000 251.500000,200.500000 251.500000,204.500000 " fill="#dd2222" stroke="#000000" stroke-width="1"/><polygon points="275.500000,192.500000 275.500000,188.500000 251.500000,200.500000 251.500000,204.500000 " fill="#aa0000" stroke="#000000" stroke-width="1"/><polygon points="675.500000,192.500000 675.500000,192.500000 699.500000,204.500000 699.500000,204.500000 " fill="#999999" stroke="#000000" stroke-width="1"/><polygon points="723.500000,192.500000 723.500000,192.500000 699.500000,204.500000 699.500000,204.500000 " fill="#666666" stroke="#000000" stroke-width="1"/><polygon points="675.500000,192.500000 699.500000,180.500000 723.500000,192.500000 699.500000,204.500000 " fill="#cccccc" stroke="#000000" stroke-width="1"/><polygon points="451.500000,208.500000 451.500000,176.500000 475.500000,188.500000 475.500000,220.500000 " fill="#ffaa22" stroke="#000000" stroke-width="1"/><polygon points="499.500000,208.500000 499.500000,176.500000 475.500000,188.500000 475.500000,220.500000 " fill="#cc7700" stroke="#000000" stroke-width="1"/><polygon points="451.500000,176.500000 475.500000,164.500000 499.500000,176.500000 475.500000,188.500000 " fill="#ffdd55" stroke="#000000" stroke-width="1"/><polygon points="451.500000,208.500000 451.500000,188.500000 475.500000,200.500000 475.500000,220.500000 " fill="#dd2222" stroke="#000000" stroke-width="1"/><polygon points="499.500000,208.500000 499.500000,188.500000 475.500000,200.500000 475.500000,220.500000 " fill="#aa0000" stroke="#000000" stroke-width="1"/><polygon points="387.500000,208.500000 387.500000,152.500000 411.500000,164.500000 411.500000,220.500000 " fill="#ffaa22" stroke="#000000" stroke-width="1"/><polygon points="435.500000,208.500000 435.500000,152.500000 411.500000,164.500000 411.500000,220.500000 " fill="#cc7700" stroke="#000000" stroke-width="1"/><polygon points="387.500000,152.500000 411.500000,140.500000 435.500000,152.500000 411.500000,164.500000 " fill="#ffdd55" stroke="#000000" stroke-width="1"/><polygon points="387.500000,208.500000 387.500000,164.500000 411.500000,176.500000 411.500000,220.500000 " fill="#dd2222" stroke="#000000" stroke-width="1"/><polygon points="435.500000,208.500000 435.500000,164.500000 411.500000,176.500000 411.500000,220.500000 " fill="#aa0000" stroke="#000000" stroke-width="1"/><polygon points="515.500000,208.500000 515.500000,208.500000 539.500000,220.500000 539.500000,220.500000 " fill="#999999" stroke="#000000" stroke-width="1"/><polygon points="563.500000,208.500000 563.500000,208.500000 539.500000,220.500000 539.500000,220.500000 " fill="#666666" stroke="#000000" stroke-width="1"/><polygon points="515.500000,208.500000 539.500000,196.500000 563.500000,208.500000 539.500000,220.500000 " fill="#cccccc" stroke="#000000" stroke-width="1"/><polygon points="323.500000,208.500000 323.500000,196.500000 347.500000,208.500000 347.500000,220.500000 " fill="#dd2222" stroke="#000000" stroke-width="1"/><polygon points="371.500000,208.500000 371.500000,196.500000 347.500000,208.500000 347.500000,220.500000 " fill="#aa0000" stroke="#000000" stroke-width="1"/><polygon points="323.500000,196.500000 347.500000,184.500000 371.500000,196.500000 347.500000,208.500000 " fill="#ff5555" stroke="#000000" stroke-width="1"/><polygon points="579.500000,208.500000 579.500000,204.500000 603.500000,216.500000 603.500000,220.500000 " fill="#dd2222" stroke="#000000" stroke-width="1"/><polygon points="627.500000,208.500000 627.500000,204.500000 603.500000,216.500000 603.500000,220.500000 " fill="#aa0000" stroke="#000000" stroke-width="1"/><polygon points="579.500000,204.500000 603.500000,192.500000 627.500000,204.500000 603.500000,216.500000 " fill="#ff5555" stroke="#000000" stroke-width="1"/><polygon points="259.500000,208.500000 259.500000,204.500000 283.500000,216.500000 283.500000,220.500000 " fill="#dd2222" stroke="#000000" stroke-width="1"/><polygon points="307.500000,208.500000 307.500000,204.500000 283.500000,216.500000 283.500000,220.500000 " fill="#aa0000" stroke="#000000" stroke-width="1"/><polygon points="259.500000,204.500000 283.500000,192.500000 307.500000,204.500000 283.500000,216.500000 " fill="#ff5555" stroke="#000000" stroke-width="1"/><polygon points="643.500000,208.500000 643.500000,208.500000 667.500000,220.500000 667.500000,220.500000 " fill="#999999" stroke="#000000" stroke-width="1"/><polygon points="691.500000,208.500000 691.500000,208.500000 667.500000,220.500000 667.500000,220.500000 " fill="#666666" stroke="#000000" stroke-width="1"/><polygon points="643.500000,208.500000 667.500000,196.500000 691.500000,208.500000 667.500000,220.500000 " fill="#cccccc" stroke="#000000" stroke-width="1"/><polygon points="195.500000,208.500000 195.500000,208.500000 219.500000,220.500000 219.500000,220.500000 " fill="#999999" stroke="#000000" stroke-width="1"/><polygon points="243.500000,208.500000 243.500000,208.500000 219.500000,220.500000 219.500000,220.500000 " fill="#666666" stroke="#000000" stroke-width="1"/><polygon points="195.500000,208.500000 219.500000,196.500000 243.500000,208.500000 219.500000,220.500000 " fill="#cccccc" stroke="#000000" stroke-width="1"/><polygon points="419.500000,224.500000 419.500000,184.500000 443.500000,196.500000 443.500000,236.500000 " fill="#ffaa22" stroke="#000000" stroke-width="1"/><polygon points="467.500000,224.500000 467.500000,184.500000 443.500000,196.500000 443.500000,236.500000 " fill="#cc7700" stroke="#000000" stroke-width="1"/><polygon points="419.500000,184.500000 443.500000,172.500000 467.500000,184.500000 443.500000,196.500000 " fill="#ffdd55" stroke="#000000" stroke-width="1"/><polygon points="419.500000,224.500000 419.500000,200.500000 443.500000,212.500000 443.500000,236.500000 " fill="#dd2222" stroke="#000000" stroke-width="1"/><polygon points="467.500000,224.500000 467.500000,200.500000 443.500000,212.500000 443.500000,236.500000 " fill="#aa0000" stroke="#000000" stroke-width="1"/><polygon points="483.500000,224.500000 483.500000,208.500000 507.500000,220.500000 507.500000,236.500000 " fill="#dd2222" stroke="#000000" stroke-width="1"/><polygon points="531.500000,224.500000 531.500000,208.500000 507.500000,220.500000 507.500000,236.500000 " fill="#aa0000" stroke="#000000" stroke-width="1"/><polygon points="483.500000,208.500000 507.500000,196.500000 531.500000,208.500000 507.500000,220.500000 " fill="#ff5555" stroke="#000000" stroke-width="1"/><polygon points="355.500000,224.500000 355.500000,212.500000 379.500000,224.500000 379.500000,236.500000 " fill="#dd2222" stroke="#000000" stroke-width="1"/><polygon points="403.500000,224.500000 403.500000,212.500000 379.500000,224.500000 379.500000,236.500000 " fill="#aa0000" stroke="#000000" stroke-width="1"/><polygon points="355.500000,212.500000 379.500000,200.500000 403.500000,212.500000 379.500000,224.500000 " fill="#ff5555" stroke="#000000" stroke-width="1"/><polygon points="547.500000,224.500000 547.500000,220.500000 571.500000,232.500000 571.500000,236.500000 " fill="#ffaa22" stroke="#000000" stroke-width="1"/><polygon points="595.500000,224.500000 595.500000,220.500000 571.500000,232.500000 571.500000,236.500000 " fill="#cc7700" stroke="#000000" stroke-width="1"/><polygon points="547.500000,220.500000 571.500000,208.500000 595.500000,220.500000 571.500000,232.500000 " fill="#ffdd55" stroke="#000000" stroke-width="1"/><polygon points="291.500000,224.500000 291.500000,224.500000 315.500000,236.500000 315.500000,236.500000 " fill="#999999" stroke="#000000" stroke-width="1"/><polygon points="339.500000,224.500000 339.500000,224.500000 315.500000,236.500000 315.500000,236.500000 " fill="#666666" stroke="#000000" stroke-width="1"/><polygon points="291.500000,224.500000 315.500000,212.500000 339.500000,224.500000 315.500000,236.500000 " fill="#cccccc" stroke="#000000" stroke-width="1"/><polygon points="611.500000,224.500000 611.500000,224.500000 635.500000,236.500000 635.500000,236.500000 " fill="#999999" stroke="#000000" stroke-width="1"/><polygon points="659.500000,224.500000 659.500000,224.500000 635.500000,236.500000 635.500000,236.500000 " fill="#666666" stroke="#000000" stroke-width="1"/><polygon points="611.500000,224.500000 635.500000,212.500000 659.500000,224.500000 635.500000,236.500000 " fill="#cccccc" stroke="#000000" stroke-width="1"/><polygon points="227.500000,224.500000 227.500000,224.500000 251.500000,236.500000 251.500000,236.500000 " fill="#999999" stroke="#000000" stroke-width="1"/><polygon points="275.500000,224.500000 275.500000,224.500000 251.500000,236.500000 251.500000,236.500000 " fill="#666666" stroke="#000000" stroke-width="1"/><polygon points="227.500000,224.500000 251.500000,212.500000 275.500000,224.500000 251.500000,236.500000 " fill="#cccccc" stroke="#000000" stroke-width="1"/><polygon points="739.500000,224.500000 739.500000,212.500000 763.500000,224.500000 763.500000,236.500000 " fill="#dd2222" stroke="#000000" stroke-width="1"/><polygon points="787.500000,224.500000 787.500000,212.500000 763.500000,224.500000 763.500000,236.500000 " fill="#aa0000" stroke="#000000" stroke-width="1"/><polygon points="739.500000,212.500000 763.500000,200.500000 787.500000,212.500000 763.500000,224.500000 " fill="#ff5555" stroke="#000000" stroke-width="1"/><polygon points="451.500000,240.500000 451.500000,232.500000 475.500000,244.500000 475.500000,252.500000 " fill="#dd2222" stroke="#000000" stroke-width="1"/><polygon points="499.500000,240.500000 499.500000,232.500000 475.500000,244.500000 475.500000,252.500000 " fill="#aa0000" stroke="#000000" stroke-width="1"/><polygon points="451.500000,232.500000 475.500000,220.500000 499.500000,232.500000 475.500000,244.500000 " fill="#ff5555" stroke="#000000" stroke-width="1"/><polygon points="387.500000,240.500000 387.500000,240.500000 411.500000,252.500000 411.500000,252.500000 " fill="#999999" stroke="#000000" stroke-width="1"/><polygon points="435.500000,240.500000 435.500000,240.500000 411.500000,252.500000 411.500000,252.500000 " fill="#666666" stroke="#000000" stroke-width="1"/><polygon points="387.500000,240.500000 411.500000,228.500000 435.500000,240.500000 411.500000,252.500000 " fill="#cccccc" stroke="#000000" stroke-width="1"/><polygon points="515.500000,240.500000 515.500000,240.500000 539.500000,252.500000 539.500000,252.500000 " fill="#999999" stroke="#000000" stroke-width="1"/><polygon points="563.500000,240.500000 563.500000,240.500000 539.500000,252.500000 539.500000,252.500000 " fill="#666666" stroke="#000000" stroke-width="1"/><polygon points="515.500000,240.500000 539.500000,228.500000 563.500000,240.500000 539.500000,252.500000 " fill="#cccccc" stroke="#000000" stroke-width="1"/><polygon points="323.500000,240.500000 323.500000,240.500000 347.500000,252.500000 347.500000,252.500000 " fill="#999999" stroke="#000000" stroke-width="1"/><polygon points="371.500000,240.500000 371.500000,240.500000 347.500000,252.500000 347.500000,252.500000 " fill="#666666" stroke="#000000" stroke-width="1"/><polygon points="323.500000,240.500000 347.500000,228.500000 371.500000,240.500000 347.500000,252.500000 " fill="#cccccc" stroke="#000000" stroke-width="1"/><polygon points="579.500000,240.500000 579.500000,240.500000 603.500000,252.500000 603.500000,252.500000 " fill="#999999" stroke="#000000" stroke-width="1"/><polygon points="627.500000,240.500000 627.500000,240.500000 603.500000,252.500000 603.500000,252.500000 " fill="#666666" stroke="#000000" stroke-width="1"/><polygon points="579.500000,240.500000 603.500000,228.500000 627.500000,240.500000 603.500000,252.500000 " fill="#cccccc" stroke="#000000" stroke-width="1"/><polygon points="259.500000,240.500000 259.500000,240.500000 283.500000,252.500000 283.500000,252.500000 " fill="#999999" stroke="#000000" stroke-width="1"/><polygon points="307.500000,240.500000 307.500000,240.500000 283.500000,252.500000 283.500000,252.500000 " fill="#666666" stroke="#000000" stroke-width="1"/><polygon points="259.500000,240.500000 283.500000,228.500000 307.500000,240.500000 283.500000,252.500000 " fill="#cccccc" stroke="#000000" stroke-width="1"/><polygon points="719.500000,234.500000 719.500000,234.500000 731.500000,240.500000 731.500000,240.500000 " fill="#999999" stroke="#000000" stroke-width="1"/><polygon points="743.500000,234.500000 743.500000,234.500000 731.500000,240.500000 731.500000,240.500000 " fill="#666666" stroke="#000000" stroke-width="1"/><polygon points="719.500000,234.500000 731.500000,228.500000 743.500000,234.500000 731.500000,240.500000 " fill="#cccccc" stroke="#000000" stroke-width="1"/><polygon points="783.500000,234.500000 783.500000,234.500000 795.500000,240.500000 795.500000,240.500000 " fill="#999999" stroke="#000000" stroke-width="1"/><polygon points="807.500000,234.500000 807.500000,234.500000 795.500000,240.500000 795.500000,240.500000 " fill="#666666" stroke="#000000" stroke-width="1"/><polygon points="783.500000,234.500000 795.500000,228.500000 807.500000,234.500000 795.500000,240.500000 " fill="#cccccc" stroke="#000000" stroke-width="1"/><polygon points="767.500000,242.500000 767.500000,242.500000 779.500000,248.500000 779.500000,248.500000 " fill="#999999" stroke="#000000" stroke-width="1"/><polygon points="791.500000,242.500000 791.500000,242.500000 779.500000,248.500000 779.500000,248.500000 " fill="#666666" stroke="#000000" stroke-width="1"/><polygon points="767.500000,242.500000 779.500000,236.500000 791.500000,242.500000 779.500000,248.500000 " fill="#cccccc" stroke="#000000" stroke-width="1"/><polygon points="735.500000,242.500000 735.500000,242.500000 747.500000,248.500000 747.500000,248.500000 " fill="#999999" stroke="#000000" stroke-width="1"/><polygon points="759.500000,242.500000 759.500000,242.500000 747.500000,248.500000 747.500000,248.500000 " fill="#666666" stroke="#000000" stroke-width="1"/><polygon points="735.500000,242.500000 747.500000,236.500000 759.500000,242.500000 747.500000,248.500000 " fill="#cccccc" stroke="#000000" stroke-width="1"/><polygon points="799.500000,242.500000 799.500000,242.500000 811.500000,248.500000 811.500000,248.500000 " fill="#999999" stroke="#000000" stroke-width="1"/><polygon points="823.500000,242.500000 823.500000,242.500000 811.500000,248.500000 811.500000,248.500000 " fill="#666666" stroke="#000000" stroke-width="1"/><polygon points="799.500000,242.500000 811.500000,236.500000 823.500000,242.500000 811.500000,248.500000 " fill="#cccccc" stroke="#000000" stroke-width="1"/><polygon points="703.500000,242.500000 703.500000,242.500000 715.500000,248.500000 715.500000,248.500000 " fill="#999999" stroke="#000000" stroke-width="1"/><polygon points="727.500000,242.500000 727.500000,242.500000 715.500000,248.500000 715.500000,248.500000 " fill="#666666" stroke="#000000" stroke-width="1"/><polygon points="703.500000,242.500000 715.500000,236.500000 727.500000,242.500000 715.500000,248.500000 " fill="#cccccc" stroke="#000000" stroke-width="1"/><polygon points="419.500000,256.500000 419.500000,248.500000 443.500000,260.500000 443.500000,268.500000 " fill="#dd2222" stroke="#000000" stroke-width="1"/><polygon points="467.500000,256.500000 467.500000,248.500000 443.500000,260.500000 443.500000,268.500000 " fill="#aa0000" stroke="#000000" stroke-width="1"/><polygon points="419.500000,248.500000 443.500000,236.500000 467.500000,248.500000 443.500000,260.500000 " fill="#ff5555" stroke="#000000" stroke-width="1"/><polygon points="483.500000,256.500000 483.500000,256.500000 507.500000,268.500000 507.500000,268.500000 " fill="#999999" stroke="#000000" stroke-width="1"/><polygon points="531.500000,256.500000 531.500000,256.500000 507.500000,268.500000 507.500000,268.500000 " fill="#666666" stroke="#000000" stroke-width="1"/><polygon points="483.500000,256.500000 507.500000,244.500000 531.500000,256.500000 507.500000,268.500000 " fill="#cccccc" stroke="#000000" stroke-width="1"/><polygon points="355.500000,256.500000 355.500000,256.500000 379.500000,268.500000 379.500000,268.500000 " fill="#999999" stroke="#000000" stroke-width="1"/><polygon points="403.500000,256.500000 403.500000,256.500000 379.500000,268.500000 379.500000,268.500000 " fill="#666666" stroke="#000000" stroke-width="1"/><polygon points="355.500000,256.500000 379.500000,244.500000 403.500000,256.500000 379.500000,268.500000 " fill="#cccccc" stroke="#000000" stroke-width="1"/><polygon points="547.500000,256.500000 547.500000,256.500000 571.500000,268.500000 571.500000,268.500000 " fill="#999999" stroke="#000000" stroke-width="1"/><polygon points="595.500000,256.500000 595.500000,256.500000 571.500000,268.500000 571.500000,268.500000 " fill="#666666" stroke="#000000" stroke-width="1"/><polygon points="547.500000,256.500000 571.500000,244.500000 595.500000,256.500000 571.500000,268.500000 " fill="#cccccc" stroke="#000000" stroke-width="1"/><polygon points="291.500000,256.500000 291.500000,256.500000 315.500000,268.500000 315.500000,268.500000 " fill="#999999" stroke="#000000" stroke-width="1"/><polygon points="339.500000,256.500000 339.500000,256.500000 315.500000,268.500000 315.500000,268.500000 " fill="#666666" stroke="#000000" stroke-width="1"/><polygon points="291.500000,256.500000 315.500000,244.500000 339.500000,256.500000 315.500000,268.500000 " fill="#cccccc" stroke="#000000" stroke-width="1"/><polygon points="751.500000,250.500000 751.500000,250.500000 763.500000,256.500000 763.500000,256.500000 " fill="#999999" stroke="#000000" stroke-width="1"/><polygon points="775.500000,250.500000 775.500000,250.500000 763.500000,256.500000 763.500000,256.500000 " fill="#666666" stroke="#000000" stroke-width="1"/><polygon points="751.500000,250.500000 763.500000,244.500000 775.500000,250.500000 763.500000,256.500000 " fill="#cccccc" stroke="#000000" stroke-width="1"/><polygon points="783.500000,250.500000 783.500000,250.500000 795.500000,256.500000 795.500000,256.500000 " fill="#999999" stroke="#000000" stroke-width="1"/><polygon points="807.500000,250.500000 807.500000,250.500000 795.500000,256.500000 795.500000,256.500000 " fill="#666666" stroke="#000000" stroke-width="1"/><polygon points="783.500000,250.500000 795.500000,244.500000 807.500000,250.500000 795.500000,256.500000 " fill="#cccccc" stroke="#000000" stroke-width="1"/><polygon points="719.500000,250.500000 719.500000,250.500000 731.500000,256.500000 731.500000,256.500000 " fill="#999999" stroke="#000000" stroke-width="1"/><polygon points="743.500000,250.500000 743.500000,250.500000 731.500000,256.500000 731.500000,256.500000 " fill="#666666" stroke="#000000" stroke-width="1"/><polygon points="719.500000,250.500000 731.500000,244.500000 743.500000,250.500000 731.500000,256.500000 " fill="#cccccc" stroke="#000000" stroke-width="1"/><polygon points="815.500000,250.500000 815.500000,250.500000 827.500000,256.500000 827.500000,256.500000 " fill="#999999" stroke="#000000" stroke-width="1"/><polygon points="839.500000,250.500000 839.500000,250.500000 827.500000,256.500000 827.500000,256.500000 " fill="#666666" stroke="#000000" stroke-width="1"/><polygon points="815.500000,250.500000 827.500000,244.500000 839.500000,250.500000 827.500000,256.500000 " fill="#cccccc" stroke="#000000" stroke-width="1"/><polygon points="687.500000,250.500000 687.500000,250.500000 699.500000,256.500000 699.500000,256.500000 " fill="#999999" stroke="#000000" stroke-width="1"/><polygon points="711.500000,250.500000 711.500000,250.500000 699.500000,256.500000 699.500000,256.500000 " fill="#666666" stroke="#000000" stroke-width="1"/><polygon points="687.500000,250.500000 699.500000,244.500000 711.500000,250.500000 699.500000,256.500000 " fill="#cccccc" stroke="#000000" stroke-width="1"/><polygon points="767.500000,258.500000 767.500000,258.500000 779.500000,264.500000 779.500000,264.500000 " fill="#999999" stroke="#000000" stroke-width="1"/><polygon points="791.500000,258.500000 791.500000,258.500000 779.500000,264.500000 779.500000,264.500000 " fill="#666666" stroke="#000000" stroke-width="1"/><polygon points="767.500000,258.500000 779.500000,252.500000 791.500000,258.500000 779.500000,264.500000 " fill="#cccccc" stroke="#000000" stroke-width="1"/><polygon points="735.500000,258.500000 735.500000,258.500000 747.500000,264.500000 747.500000,264.500000 " fill="#999999" stroke="#000000" stroke-width="1"/><polygon points="759.500000,258.500000 759.500000,258.500000 747.500000,264.500000 747.500000,264.500000 " fill="#666666" stroke="#000000" stroke-width="1"/><polygon points="735.500000,258.500000 747.500000,252.500000 759.500000,258.500000 747.500000,264.500000 " fill="#cccccc" stroke="#000000" stroke-width="1"/><polygon points="799.500000,258.500000 799.500000,258.500000 811.500000,264.500000 811.500000,264.500000 " fill="#999999" stroke="#000000" stroke-width="1"/><polygon points="823.500000,258.500000 823.500000,258.500000 811.500000,264.500000 811.500000,264.500000 " fill="#666666" stroke="#000000" stroke-width="1"/><polygon points="799.500000,258.500000 811.500000,252.500000 823.500000,258.500000 811.500000,264.500000 " fill="#cccccc" stroke="#000000" stroke-width="1"/><polygon points="703.500000,258.500000 703.500000,258.500000 715.500000,264.500000 715.500000,264.500000 " fill="#999999" stroke="#000000" stroke-width="1"/><polygon points="727.500000,258.500000 727.500000,258.500000 715.500000,264.500000 715.500000,264.500000 " fill="#666666" stroke="#000000" stroke-width="1"/><polygon points="703.500000,258.500000 715.500000,252.500000 727.500000,258.500000 715.500000,264.500000 " fill="#cccccc" stroke="#000000" stroke-width="1"/><polygon points="831.500000,258.500000 831.500000,258.500000 843.500000,264.500000 843.500000,264.500000 " fill="#999999" stroke="#000000" stroke-width="1"/><polygon points="855.500000,258.500000 855.500000,258.500000 843.500000,264.500000 843.500000,264.500000 " fill="#666666" stroke="#000000" stroke-width="1"/><polygon points="831.500000,258.500000 843.500000,252.500000 855.500000,258.500000 843.500000,264.500000 " fill="#cccccc" stroke="#000000" stroke-width="1"/><polygon points="671.500000,258.500000 671.500000,258.500000 683.500000,264.500000 683.500000,264.500000 " fill="#999999" stroke="#000000" stroke-width="1"/><polygon points="695.500000,258.500000 695.500000,258.500000 683.500000,264.500000 683.500000,264.500000 " fill="#666666" stroke="#000000" stroke-width="1"/><polygon points="671.500000,258.500000 683.500000,252.500000 695.500000,258.500000 683.500000,264.500000 " fill="#cccccc" stroke="#000000" stroke-width="1"/><polygon points="451.500000,272.500000 451.500000,272.500000 475.500000,284.500000 475.500000,284.500000 " fill="#999999" stroke="#000000" stroke-width="1"/><polygon points="499.500000,272.500000 499.500000,272.500000 475.500000,284.500000 475.500000,284.500000 " fill="#666666" stroke="#000000" stroke-width="1"/><polygon points="451.500000,272.500000 475.500000,260.500000 499.500000,272.500000 475.500000,284.500000 " fill="#cccccc" stroke="#000000" stroke-width="1"/><polygon points="387.500000,272.500000 387.500000,272.500000 411.500000,284.500000 411.500000,284.500000 " fill="#999999" stroke="#000000" stroke-width="1"/><polygon points="435.500000,272.500000 435.500000,272.500000 411.500000,284.500000 411.500000,284.500000 " fill="#666666" stroke="#000000" stroke-width="1"/><polygon points="387.500000,272.500000 411.500000,260.500000 435.500000,272.500000 411.500000,284.500000 " fill="#cccccc" stroke="#000000" stroke-width="1"/><polygon points="515.500000,272.500000 515.500000,272.500000 539.500000,284.500000 539.500000,284.500000 " fill="#999999" stroke="#000000" stroke-width="1"/><polygon points="563.500000,272.500000 563.500000,272.500000 539.500000,284.500000 539.500000,284.500000 " fill="#666666" stroke="#000000" stroke-width="1"/><polygon points="515.500000,272.500000 539.500000,260.500000 563.500000,272.500000 539.500000,284.500000 " fill="#cccccc" stroke="#000000" stroke-width="1"/><polygon points="323.500000,272.500000 323.500000,240.500000 347.500000,252.500000 347.500000,284.500000 " fill="#ffaa22" stroke="#000000" stroke-width="1"/><polygon points="371.500000,272.500000 371.500000,240.500000 347.500000,252.500000 347.500000,284.500000 " fill="#cc7700" stroke="#000000" stroke-width="1"/><polygon points="323.500000,240.500000 347.500000,228.500000 371.500000,240.500000 347.500000,252.500000 " fill="#ffdd55" stroke="#000000" stroke-width="1"/><polygon points="323.500000,272.500000 323.500000,252.500000 347.500000,264.500000 347.500000,284.500000 " fill="#dd2222" stroke="#000000" stroke-width="1"/><polygon points="371.500000,272.500000 371.500000,252.500000 347.500000,264.500000 347.500000,284.500000 " fill="#aa0000" stroke="#000000" stroke-width="1"/><polygon points="751.500000,266.500000 751.500000,266.500000 763.500000,272.500000 763.500000,272.500000 " fill="#999999" stroke="#000000" stroke-width="1"/><polygon points="775.500000,266.500000 775.500000,266.500000 763.500000,272.500000 763.500000,272.500000 " fill="#666666" stroke="#000000" stroke-width="1"/><polygon points="751.500000,266.500000 763.500000,260.500000 775.500000,266.500000 763.500000,272.500000 " fill="#cccccc" stroke="#000000" stroke-width="1"/><polygon points="783.500000,266.500000 783.500000,266.500000 795.500000,272.500000 795.500000,272.500000 " fill="#999999" stroke="#000000" stroke-width="1"/><polygon points="807.500000,266.500000 807.500000,266.500000 795.500000,272.500000 795.500000,272.500000 " fill="#666666" stroke="#000000" stroke-width="1"/><polygon points="783.500000,266.500000 795.500000,260.500000 807.500000,266.500000 795.500000,272.500000 " fill="#cccccc" stroke="#000000" stroke-width="1"/><polygon points="719.500000,266.500000 719.500000,266.500000 731.500000,272.500000 731.500000,272.500000 " fill="#999999" stroke="#000000" stroke-width="1"/><polygon points="743.500000,266.500000 743.500000,266.500000 731.500000,272.500000 731.500000,272.500000 " fill="#666666" stroke="#000000" stroke-width="1"/><polygon points="719.500000,266.500000 731.500000,260.500000 743.500000,266.500000 731.500000,272.500000 " fill="#cccccc" stroke="#000000" stroke-width="1"/><polygon points="815.500000,266.500000 815.500000,266.500000 827.500000,272.500000 827.500000,272.500000 " fill="#999999" stroke="#000000" stroke-width="1"/><polygon points="839.500000,266.500000 839.500000,266.500000 827.500000,272.500000 827.500000,272.500000 " fill="#666666" stroke="#000000" stroke-width="1"/><polygon points="815.500000,266.500000 827.500000,260.500000 839.500000,266.500000 827.500000,272.500000 " fill="#cccccc" stroke="#000000" stroke-width="1"/><polygon points="767.500000,274.500000 767.500000,274.500000 779.500000,280.500000 779.500000,280.500000 " fill="#999999" stroke="#000000" stroke-width="1"/><polygon points="791.500000,274.500000 791.500000,274.500000 779.500000,280.500000 779.500000,280.500000 " fill="#666666" stroke="#000000" stroke-width="1"/><polygon points="767.500000,274.500000 779.500000,268.500000 791.500000,274.500000 779.500000,280.500000 " fill="#cccccc" stroke="#000000" stroke-width="1"/><polygon points="735.500000,274.500000 735.500000,274.500000 747.500000,280.500000 747.500000,280.500000 " fill="#999999" stroke="#000000" stroke-width="1"/><polygon points="759.500000,274.500000 759.500000,274.500000 747.500000,280.500000 747.500000,280.500000 " fill="#666666" stroke="#000000" stroke-width="1"/><polygon points="735.500000,274.500000 747.500000,268.500000 759.500000,274.500000 747.500000,280.500000 " fill="#cccccc" stroke="#000000" stroke-width="1"/><polygon points="799.500000,274.500000 799.500000,274.500000 811.500000,280.500000 811.500000,280.500000 " fill="#999999" stroke="#000000" stroke-width="1"/><polygon points="823.500000,274.500000 823.500000,274.500000 811.500000,280.500000 811.500000,280.500000 " fill="#666666" stroke="#000000" stroke-width="1"/><polygon points="799.500000,274.500000 811.500000,268.500000 823.500000,274.500000 811.500000,280.500000 " fill="#cccccc" stroke="#000000" stroke-width="1"/><polygon points="419.500000,288.500000 419.500000,288.500000 443.500000,300.500000 443.500000,300.500000 " fill="#999999" stroke="#000000" stroke-width="1"/><polygon points="467.500000,288.500000 467.500000,288.500000 443.500000,300.500000 443.500000,300.500000 " fill="#666666" stroke="#000000" stroke-width="1"/><polygon points="419.500000,288.500000 443.500000,276.500000 467.500000,288.500000 443.500000,300.500000 " fill="#cccccc" stroke="#000000" stroke-width="1"/><polygon points="367.500000,282.500000 367.500000,282.500000 379.500000,288.500000 379.500000,288.500000 " fill="#999999" stroke="#000000" stroke-width="1"/><polygon points="391.500000,282.500000 391.500000,282.500000 379.500000,288.500000 379.500000,288.500000 " fill="#666666" stroke="#000000" stroke-width="1"/><polygon points="367.500000,282.500000 379.500000,276.500000 391.500000,282.500000 379.500000,288.500000 " fill="#cccccc" stroke="#000000" stroke-width="1"/><polygon points="303.500000,282.500000 303.500000,282.500000 315.500000,288.500000 315.500000,288.500000 " fill="#999999" stroke="#000000" stroke-width="1"/><polygon points="327.500000,282.500000 327.500000,282.500000 315.500000,288.500000 315.500000,288.500000 " fill="#666666" stroke="#000000" stroke-width="1"/><polygon points="303.500000,282.500000 315.500000,276.500000 327.500000,282.500000 315.500000,288.500000 " fill="#cccccc" stroke="#000000" stroke-width="1"/><polygon points="483.500000,288.500000 483.500000,256.500000 507.500000,268.500000 507.500000,300.500000 " fill="#ffaa22" stroke="#000000" stroke-width="1"/><polygon points="531.500000,288.500000 531.500000,256.500000 507.500000,268.500000 507.500000,300.500000 " fill="#cc7700" stroke="#000000" stroke-width="1"/><polygon points="483.500000,256.500000 507.500000,244.500000 531.500000,256.500000 507.500000,268.500000 " fill="#ffdd55" stroke="#000000" stroke-width="1"/><polygon points="483.500000,288.500000 483.500000,268.500000 507.500000,280.500000 507.500000,300.500000 " fill="#dd2222" stroke="#000000" stroke-width="1"/><polygon points="531.500000,288.500000 531.500000,268.500000 507.500000,280.500000 507.500000,300.500000 " fill="#aa0000" stroke="#000000" stroke-width="1"/><polygon points="751.500000,282.500000 751.500000,282.500000 763.500000,288.500000 763.500000,288.500000 " fill="#999999" stroke="#000000" stroke-width="1"/><polygon points="775.500000,282.500000 775.500000,282.500000 763.500000,288.500000 763.500000,288.500000 " fill="#666666" stroke="#000000" stroke-width="1"/><polygon points="751.500000,282.500000 763.500000,276.500000 775.500000,282.500000 763.500000,288.500000 " fill="#cccccc" stroke="#000000" stroke-width="1"/><polygon points="319.500000,290.500000 319.500000,290.500000 331.500000,296.500000 331.500000,296.500000 " fill="#999999" stroke="#000000" stroke-width="1"/><polygon points="343.500000,290.500000 343.500000,290.500000 331.500000,296.500000 331.500000,296.500000 " fill="#666666" stroke="#000000" stroke-width="1"/><polygon points="319.500000,290.500000 331.500000,284.500000 343.500000,290.500000 331.500000,296.500000 " fill="#cccccc" stroke="#000000" stroke-width="1"/><polygon points="463.500000,298.500000 463.500000,298.500000 475.500000,304.500000 475.500000,304.500000 " fill="#999999" stroke="#000000" stroke-width="1"/><polygon points="487.500000,298.500000 487.500000,298.500000 475.500000,304.500000 475.500000,304.500000 " fill="#666666" stroke="#000000" stroke-width="1"/><polygon points="463.500000,298.500000 475.500000,292.500000 487.500000,298.500000 475.500000,304.500000 " fill="#cccccc" stroke="#000000" stroke-width="1"/><polygon points="527.500000,298.500000 527.500000,298.500000 539.500000,304.500000 539.500000,304.500000 " fill="#999999" stroke="#000000" stroke-width="1"/><polygon points="551.500000,298.500000 551.500000,298.500000 539.500000,304.500000 539.500000,304.500000 " fill="#666666" stroke="#000000" stroke-width="1"/><polygon points="527.500000,298.500000 539.500000,292.500000 551.500000,298.500000 539.500000,304.500000 " fill="#cccccc" stroke="#000000" stroke-width="1"/><polygon points="511.500000,306.500000 511.500000,306.500000 523.500000,312.500000 523.500000,312.500000 " fill="#999999" stroke="#000000" stroke-width="1"/><polygon points="535.500000,306.500000 535.500000,306.500000 523.500000,312.500000 523.500000,312.500000 " fill="#666666" stroke="#000000" stroke-width="1"/><polygon points="511.500000,306.500000 523.500000,300.500000 535.500000,306.500000 523.500000,312.500000 " fill="#cccccc" stroke="#000000" stroke-width="1"/><polygon points="479.500000,306.500000 479.500000,306.500000 491.500000,312.500000 491.500000,312.500000 " fill="#999999" stroke="#000000" stroke-width="1"/><polygon points="503.500000,306.500000 503.500000,306.500000 491.500000,312.500000 491.500000,312.500000 " fill="#666666" stroke="#000000" stroke-width="1"/><polygon points="479.500000,306.500000 491.500000,300.500000 503.500000,306.500000 491.500000,312.500000 " fill="#cccccc" stroke="#000000" stroke-width="1"/><polygon points="543.500000,306.500000 543.500000,306.500000 555.500000,312.500000 555.500000,312.500000 " fill="#999999" stroke="#000000" stroke-width="1"/><polygon points="567.500000,306.500000 567.500000,306.500000 555.500000,312.500000 555.500000,312.500000 " fill="#666666" stroke="#000000" stroke-width="1"/><polygon points="543.500000,306.500000 555.500000,300.500000 567.500000,306.500000 555.500000,312.500000 " fill="#cccccc" stroke="#000000" stroke-width="1"/><polygon points="495.500000,314.500000 495.500000,314.500000 507.500000,320.500000 507.500000,320.500000 " fill="#999999" stroke="#000000" stroke-width="1"/><polygon points="519.500000,314.500000 519.500000,314.500000 507.500000,320.500000 507.500000,320.500000 " fill="#666666" stroke="#000000" stroke-width="1"/><polygon points="495.500000,314.500000 507.500000,308.500000 519.500000,314.500000 507.500000,320.500000 " fill="#cccccc" stroke="#000000" stroke-width="1"/><text clip-path="url(#cp-1)" x="442" y="26"><tspan x="475" text-anchor="middle">Home Interior </tspan><tspan x="475" text-anchor="middle" dy="14">Design and </tspan><tspan x="475" text-anchor="middle" dy="14">Improvement</tspan></text><clipPath id="cp-1"><rect x="441" y="14" width="67" height="43"/></clipPath></svg>
